<mxfile host="app.diagrams.net" agent="Mozilla/5.0 (Macintosh; Intel Mac OS X 10_15_7) AppleWebKit/537.36 (KHTML, like Gecko) Chrome/139.0.0.0 Safari/537.36" version="28.1.2">
  <diagram name="Page-1" id="umLXCl_15YMyjagyrhHN">
    <mxGraphModel dx="1426" dy="692" grid="1" gridSize="10" guides="1" tooltips="1" connect="1" arrows="1" fold="1" page="1" pageScale="1" pageWidth="827" pageHeight="1169" math="0" shadow="0">
      <root>
        <mxCell id="0" />
        <mxCell id="1" parent="0" />
        <mxCell id="IpyR1aiaY0MKnHdYSGGQ-3" style="edgeStyle=orthogonalEdgeStyle;rounded=0;orthogonalLoop=1;jettySize=auto;html=1;exitX=1;exitY=0.5;exitDx=0;exitDy=0;entryX=0;entryY=0.5;entryDx=0;entryDy=0;" edge="1" parent="1" source="IpyR1aiaY0MKnHdYSGGQ-1" target="IpyR1aiaY0MKnHdYSGGQ-2">
          <mxGeometry relative="1" as="geometry" />
        </mxCell>
        <mxCell id="IpyR1aiaY0MKnHdYSGGQ-1" value="client" style="whiteSpace=wrap;html=1;aspect=fixed;" vertex="1" parent="1">
          <mxGeometry x="40" y="230" width="80" height="80" as="geometry" />
        </mxCell>
        <mxCell id="IpyR1aiaY0MKnHdYSGGQ-13" style="edgeStyle=orthogonalEdgeStyle;rounded=0;orthogonalLoop=1;jettySize=auto;html=1;exitX=1;exitY=0.5;exitDx=0;exitDy=0;" edge="1" parent="1" source="IpyR1aiaY0MKnHdYSGGQ-2" target="IpyR1aiaY0MKnHdYSGGQ-4">
          <mxGeometry relative="1" as="geometry" />
        </mxCell>
        <mxCell id="IpyR1aiaY0MKnHdYSGGQ-2" value="Router" style="rounded=0;whiteSpace=wrap;html=1;" vertex="1" parent="1">
          <mxGeometry x="190" y="240" width="120" height="60" as="geometry" />
        </mxCell>
        <mxCell id="IpyR1aiaY0MKnHdYSGGQ-8" style="edgeStyle=orthogonalEdgeStyle;rounded=0;orthogonalLoop=1;jettySize=auto;html=1;exitX=1;exitY=0.5;exitDx=0;exitDy=0;entryX=0;entryY=0.5;entryDx=0;entryDy=0;" edge="1" parent="1" source="IpyR1aiaY0MKnHdYSGGQ-4" target="IpyR1aiaY0MKnHdYSGGQ-5">
          <mxGeometry relative="1" as="geometry" />
        </mxCell>
        <mxCell id="IpyR1aiaY0MKnHdYSGGQ-4" value="Switch" style="shape=process;whiteSpace=wrap;html=1;backgroundOutline=1;" vertex="1" parent="1">
          <mxGeometry x="370" y="245" width="100" height="50" as="geometry" />
        </mxCell>
        <mxCell id="IpyR1aiaY0MKnHdYSGGQ-5" value="Server" style="rounded=0;whiteSpace=wrap;html=1;" vertex="1" parent="1">
          <mxGeometry x="570" y="240" width="120" height="60" as="geometry" />
        </mxCell>
        <mxCell id="IpyR1aiaY0MKnHdYSGGQ-6" value="Server" style="rounded=0;whiteSpace=wrap;html=1;" vertex="1" parent="1">
          <mxGeometry x="570" y="120" width="120" height="60" as="geometry" />
        </mxCell>
        <mxCell id="IpyR1aiaY0MKnHdYSGGQ-7" value="Server" style="rounded=0;whiteSpace=wrap;html=1;" vertex="1" parent="1">
          <mxGeometry x="570" y="360" width="120" height="60" as="geometry" />
        </mxCell>
        <mxCell id="IpyR1aiaY0MKnHdYSGGQ-10" value="" style="endArrow=classic;html=1;rounded=0;entryX=0;entryY=0.75;entryDx=0;entryDy=0;" edge="1" parent="1" target="IpyR1aiaY0MKnHdYSGGQ-6">
          <mxGeometry width="50" height="50" relative="1" as="geometry">
            <mxPoint x="470" y="245" as="sourcePoint" />
            <mxPoint x="520" y="195" as="targetPoint" />
          </mxGeometry>
        </mxCell>
        <mxCell id="IpyR1aiaY0MKnHdYSGGQ-11" value="" style="endArrow=classic;html=1;rounded=0;entryX=0;entryY=0;entryDx=0;entryDy=0;" edge="1" parent="1" target="IpyR1aiaY0MKnHdYSGGQ-7">
          <mxGeometry width="50" height="50" relative="1" as="geometry">
            <mxPoint x="470" y="295" as="sourcePoint" />
            <mxPoint x="530" y="325" as="targetPoint" />
          </mxGeometry>
        </mxCell>
        <mxCell id="IpyR1aiaY0MKnHdYSGGQ-14" value="Local Network&#xa;" style="swimlane;startSize=0;" vertex="1" parent="1">
          <mxGeometry x="20" y="40" width="790" height="450" as="geometry" />
        </mxCell>
      </root>
    </mxGraphModel>
  </diagram>
</mxfile>
